<?xml version="1.0" standalone="no"?>
<!DOCTYPE svg PUBLIC "-//W3C//DTD SVG 20010904//EN"
 "http://www.w3.org/TR/2001/REC-SVG-20010904/DTD/svg10.dtd">
<svg version="1.0" xmlns="http://www.w3.org/2000/svg"
 width="16.000000pt" height="16.000000pt" viewBox="0 0 16.000000 16.000000"
 preserveAspectRatio="xMidYMid meet">
<g transform="translate(0.000000,16.000000) scale(0.003077,-0.003077)"
fill="#000000" stroke="none">
<path d="M1465 4550 l-1120 -648 0 -1302 0 -1303 1124 -648 c618 -357 1127
-649 1131 -649 4 0 513 292 1131 649 l1124 648 0 1303 0 1302 -1124 649 c-618
357 -1129 649 -1135 648 -6 0 -515 -292 -1131 -649z m494 -755 c188 -45 333
-176 376 -340 56 -218 -46 -439 -250 -541 -110 -54 -176 -64 -452 -64 l-243 0
0 480 0 480 253 0 c190 0 268 -4 316 -15z m1656 -456 c105 -259 192 -475 193
-480 3 -6 -36 -9 -98 -7 l-103 3 -39 103 -40 102 -200 -2 -200 -3 -40 -102
-39 -103 -100 0 -99 0 14 35 c8 19 95 232 192 473 97 240 178 440 181 445 2 4
46 7 96 7 l92 0 190 -471z m-1625 -1064 c16 -38 103 -253 193 -477 l165 -408
-102 0 -102 0 -39 105 -40 105 -199 -2 -200 -3 -39 -102 -40 -103 -98 0 -99 0
20 51 c65 165 354 877 362 892 8 15 21 17 100 15 l90 -3 28 -70z m1209 -125
c68 -110 126 -202 130 -204 3 -2 62 87 131 198 l125 201 113 3 112 3 0 -481 0
-480 -100 0 -100 0 -2 317 -3 317 -135 -206 c-74 -114 -138 -206 -141 -205 -4
1 -67 92 -140 202 l-134 200 -3 -312 -2 -313 -100 0 -100 0 0 480 0 480 113 0
112 0 124 -200z"/>
<path d="M1610 3331 l0 -301 98 0 c171 0 256 25 328 97 55 55 78 114 78 203 1
129 -54 213 -174 269 -49 22 -71 26 -192 29 l-138 4 0 -301z"/>
<path d="M3263 3405 c-33 -85 -58 -157 -55 -160 3 -3 59 -5 125 -5 119 0 119
0 113 23 -11 43 -111 297 -117 297 -3 0 -33 -70 -66 -155z"/>
<path d="M1807 1958 c-31 -79 -59 -151 -63 -160 -6 -17 4 -18 120 -18 69 0
126 3 126 7 0 11 -112 297 -120 306 -4 5 -33 -56 -63 -135z"/>
</g>
</svg>
